# xmcd
#
# Track frame offsets: 
#        150
#        15545
#        27571
#        45285
#        64238
#        84938
#        103165
#        118781
#        142886
#        160987
#        177353
#
# Disc length: 2597 seconds
#
# Revision: 1
# Processed by: cddbd v1.5.2PL0 Copyright (c) Steve Scherf et al.
# Submitted via: ExactAudioCopy v1.0b4
#
DISCID=8a0a230b
DTITLE=Ron Hacker and The Hacksaws - Goin' Down Howlin'
DYEAR=2015
DGENRE=Blues, Electric Blues
TTITLE0=Evil Hearted Woman
TTITLE1=Big Brown Eyes
TTITLE2=Hate To See You Go
TTITLE3=Ax Sweet Momma
TTITLE4=Baby What You Want Me To Do
TTITLE5=You Got To Move
TTITLE6=Nadine
TTITLE7=Goin' Down Slow
TTITLE8=Howlin' For My Darlin'
TTITLE9=Goin' To Brownsville
TTITLE10=Goin' Down Slow (Acoustic)
EXTD=
EXTT0=
EXTT1=
EXTT2=
EXTT3=
EXTT4=
EXTT5=
EXTT6=
EXTT7=
EXTT8=
EXTT9=
EXTT10=
PLAYORDER=
